<?xml version="1.0" encoding="utf-8"?>
<!-- Generator: Adobe Illustrator 21.0.2, SVG Export Plug-In . SVG Version: 6.00 Build 0)  -->
<svg version="1.1" id="Layer_2" xmlns="http://www.w3.org/2000/svg" xmlns:xlink="http://www.w3.org/1999/xlink" x="0px" y="0px"
	 viewBox="0 0 240 300" style="enable-background:new 0 0 240 300;" xml:space="preserve">
<style type="text/css">
	.st0{fill:#E44D26;}
	.st1{fill:#F16529;}
	.st2{fill:#FFFFFF;}
	.st3{fill:#EBEBEB;}
</style>
<g>
	<path d="M59.8,14.8H47.6V1.5H34.1v40.1h13.5V28.3h12.2v13.3h13.5V1.5H59.8V14.8z M153.7,1.5h-1.2l-8.3,13.7l-8.3-13.7h-0.9h-12.4
		h-0.7v40.1h13v-20l9.3,14.4l0,0l0,0l0,0l0,0l9.5-14.8v20.4h13V1.5h-0.9H153.7z M79.1,15h11.7v26.6h13.5V15H116V1.5H79.1V15z
		 M187.1,28.1V1.5h-13.5v40.1h3.4h10.1h18.7V28.1H187.1z"/>
	<polygon class="st0" points="225.5,59.7 120,59.7 120,59.7 14.5,59.7 34.3,274.2 120,298.5 120,298.5 120,298.5 120,298.5 
		120,298.5 205.7,274.2 	"/>
	<polygon class="st1" points="120,77.2 120,280.3 120,280.3 189.4,260.7 206.3,77.2 	"/>
	<polygon class="st2" points="186.4,103.5 53.6,103.5 61,183.8 61.2,183.3 151.9,183.3 148.9,217.3 120,225.6 90.6,217.2 
		88.9,196.6 62.2,196.6 66,237.7 120,253 174,237.7 181.4,157.1 85.2,157.1 82.7,130.2 183.9,130.2 	"/>
	<g>
		<path class="st3" d="M120,103.5H53.6l7.4,80.3l0.2-0.5H120v-26.3H85.2l-2.5-26.9H120V103.5z M88.9,196.6H62.2l3.8,41.1l54,15.3
			v-27.4l-29.4-8.5L88.9,196.6z"/>
	</g>
</g>
</svg>
