<svg xmlns="http://www.w3.org/2000/svg" viewBox="0 0 240 210.01"><defs><style>.cls-1{fill:#0c6;}.cls-2{fill:#fff;}</style></defs><title>globo</title><g id="Capa_2" data-name="Capa 2"><g id="Capa_1-2" data-name="Capa 1"><g id="Comprobar"><path class="cls-1" d="M120,0c66.23,0,120,43.24,120,97.16a85,85,0,0,1-23.12,57.24L239.19,210l-94.48-19.12c-9.87,0-20.93,2.69-32,2.94H109C44.74,193.7,0,150,0,97.16,0,43.24,53.74,0,120,0"/><path class="cls-2" d="M120,26.31C68.36,26.31,26.31,58,26.31,97.1c-.06,40.36,35.49,70.48,82.67,70.48H112a126.34,126.34,0,0,0,14.37-1.37c5.12-.62,11.56-1.44,17.62-1.62H147l2.87.62L196.7,175l-4.12-10.37-6.25-15.31,11.06-12.5a59.36,59.36,0,0,0,16.31-39.55C213.76,58,171.71,26.31,120,26.31Z"/></g></g></g></svg>