<svg xmlns="http://www.w3.org/2000/svg" viewBox="0 0 163.33 33.61"><defs><style>.cls-1{fill:#0c6;}.cls-2{fill:#fff;}</style></defs><title>logo</title><g id="Capa_2" data-name="Capa 2"><g id="Capa_1-2" data-name="Capa 1"><g id="Capa_1-2-2" data-name="Capa 1-2"><g id="Comentarios"><path class="cls-1" d="M63.78,28.74H51.58V7h3.53V25.6h8.67Z"/><path class="cls-1" d="M95.51,26.42q-2,2.67-6.88,2.67t-6.89-2.68q-2-2.68-2-8.43t2-8.54q2-2.79,6.88-2.79t6.86,2.78q2,2.78,2,8.56T95.51,26.42Zm-11-2.29Q85.59,26,88.64,26t4.11-1.84q1.06-1.84,1.06-6.18t-1.1-6.3q-1.1-2-4.08-2t-4.1,2A13.46,13.46,0,0,0,83.42,18q0,4.27,1.08,6.19Z"/><path class="cls-1" d="M123.33,20.42V17.31h6.19v11a27.8,27.8,0,0,1-3.48.48q-2.62.25-3.8.25-5,0-6.83-2.73t-1.85-8.56q0-5.83,1.92-8.5t6.65-2.67a35.53,35.53,0,0,1,6.29.64l1.11.22-.13,2.79a53.16,53.16,0,0,0-6.89-.51q-3,0-4.18,1.72t-1.12,6.31q0,4.64,1.06,6.4t4.3,1.76a15.44,15.44,0,0,0,3.46-.29v-5.3Z"/><path class="cls-1" d="M161.33,26.42q-2,2.67-6.88,2.67t-6.89-2.68q-2-2.68-2-8.43t2-8.54q2-2.79,6.88-2.79t6.89,2.76q2,2.78,2,8.56T161.33,26.42Zm-11-2.29Q151.41,26,154.46,26t4.11-1.84q1.06-1.84,1.06-6.18t-1.1-6.3q-1.1-2-4.08-2t-4.1,2A13.46,13.46,0,0,0,149.24,18q0,4.27,1.09,6.19Z"/><g id="Comentarios-2"><path class="cls-1" d="M19.21,0C29.81,0,38.41,6.92,38.41,15.55a13.61,13.61,0,0,1-3.7,9.16l3.57,8.9L23.16,30.55c-1.58,0-3.35.43-5.12.47h-.6C7.16,31,0,24,0,15.55,0,6.92,8.6,0,19.21,0"/><path class="cls-2" d="M19.21,4.21c-8.27,0-15,5.08-15,11.33C4.2,22,9.89,26.82,17.44,26.82h.49a20.22,20.22,0,0,0,2.3-.22c.82-.1,1.85-.23,2.82-.26h.47l.46.1L31.48,28l-.66-1.66-1-2.45,1.77-2a9.5,9.5,0,0,0,2.61-6.33C34.21,9.29,27.48,4.21,19.21,4.21Z"/></g></g></g></g></g></svg>