<svg xmlns="http://www.w3.org/2000/svg" xmlns:xlink="http://www.w3.org/1999/xlink" width="1360" height="1300"><g transform="translate(0 0)"><path d="M0 0h1360v1300H0z" fill="#fff"/><path d="M82 88.5c0-1.38 1.12-2.5 2.5-2.5h1191c1.38 0 2.5 1.12 2.5 2.5v1123c0 1.38-1.12 2.5-2.5 2.5H84.5c-1.38 0-2.5-1.12-2.5-2.5z" stroke="#ec6058" stroke-width="2" fill="#fff"/><path d="M82 88.5c0-1.38 1.12-2.5 2.5-2.5h1191c1.38 0 2.5 1.12 2.5 2.5v55c0 1.38-1.12 2.5-2.5 2.5H84.5c-1.38 0-2.5-1.12-2.5-2.5z" stroke="#ec6058" stroke-width="2" fill="#bfbfbf"/><path d="M274 112.5c0-1.38 1.12-2.5 2.5-2.5h987c1.38 0 2.5 1.12 2.5 2.5v19c0 1.38-1.12 2.5-2.5 2.5h-987c-1.38 0-2.5-1.12-2.5-2.5z" stroke="#ec6058" stroke-width="2" fill="#fff"/><path d="M106 110l-12 12 12 12m-12-12h24M154 110l12 12-12 12m-12-12h24M214 122c-1.4-6.23-2.8-8.15-4.95-9.7-5.36-3.9-12.86-2.72-16.76 2.65-3.9 5.36-2.72 12.86 2.65 16.76 5.36 3.9 12.86 2.72 16.76-2.65" stroke="#ec6058" stroke-width="6" fill="none"/><path d="M217.12 110v12h-12z" stroke="#ec6058" stroke-width="1.5" fill="#ec6058"/><path d="M238 122l12-12 12 12h-2.4v12h-6v-12h-7.2v12h-6v-12z" stroke="#ec6058" fill="#ec6058"/><use xlink:href="#a" transform="matrix(1,0,0,1,102,86) translate(565.7333333333333 15.333333333333332)"/><use xlink:href="#b" transform="matrix(1,0,0,1,280,110) translate(0 15.333333333333332)"/><path d="M82 148.5c0-1.38 1.12-2.5 2.5-2.5h1191c1.38 0 2.5 1.12 2.5 2.5v84c0 1.38-1.12 2.5-2.5 2.5H84.5c-1.38 0-2.5-1.12-2.5-2.5z" stroke="#ec6058" stroke-width="2" fill="#f2f2f2"/><path d="M156 160.5c0-1.38 1.12-2.5 2.5-2.5h747c1.38 0 2.5 1.12 2.5 2.5v23c0 1.38-1.12 2.5-2.5 2.5h-747c-1.38 0-2.5-1.12-2.5-2.5z" stroke="#ec6058" stroke-width="2" fill="#fff"/><use xlink:href="#c" transform="matrix(1,0,0,1,166,160.8) translate(0 16.833333333333336)"/><path d="M969.95 201c-3.3 0-5.95 2.66-5.95 5.95v7.92c0 3.3 2.66 5.95 5.95 5.95h134.1c3.3 0 5.95-2.66 5.95-5.95v-7.92c0-3.3-2.66-5.95-5.95-5.95z" fill="none"/><use xlink:href="#d" transform="matrix(1,0,0,1,974,202.9820224719101) translate(37.266666666666666 13.333333333333334)"/><use xlink:href="#e" transform="matrix(1,0,0,1,974,202.9820224719101) translate(74.44 13.333333333333334)"/><path d="M1180 199.5c0-1.38 1.12-2.5 2.5-2.5h31c1.38 0 2.5 1.12 2.5 2.5v27c0 1.38-1.12 2.5-2.5 2.5h-31c-1.38 0-2.5-1.12-2.5-2.5z" stroke="#ec6058" stroke-width="2" fill="#fff"/><path d="M1180 197l36 32m0-32l-36 32" stroke="#ec6058" stroke-width="2" fill="none"/><use xlink:href="#c" transform="matrix(1,0,0,1,1183.6,213) translate(14.5 14.222222222222223)"/><path d="M1135 199.5c0-1.38 1.12-2.5 2.5-2.5h35c1.38 0 2.5 1.12 2.5 2.5v27c0 1.38-1.12 2.5-2.5 2.5h-35c-1.38 0-2.5-1.12-2.5-2.5z" fill="none"/><use xlink:href="#f" transform="matrix(1,0,0,1,1145,200.2) translate(-5.795555555555556 17.444444444444443)"/><path d="M156.4 158c-4.64 0-8.4 3.76-8.4 8.4v11.2c0 4.64 3.76 8.4 8.4 8.4h63.2c4.64 0 8.4-3.76 8.4-8.4v-11.2c0-4.64-3.76-8.4-8.4-8.4z" stroke="#ec6058" stroke-width="2" fill="#fff"/><use xlink:href="#g" transform="matrix(1,0,0,1,158,160.8) translate(20.17283950617284 15.055555555555555)"/><path d="M205 163.5c0-1.38 1.12-2.5 2.5-2.5h15c1.38 0 2.5 1.12 2.5 2.5v16c0 1.38-1.12 2.5-2.5 2.5h-15c-1.38 0-2.5-1.12-2.5-2.5z" fill="none"/><path d="M220.14 168.06L215 172.7l-5.14-4.64-1.06 1.28 6.2 5.6 6.2-5.6-1.06-1.28z" fill="#403f3f"/><path d="M129.95 202c-3.3 0-5.95 2.66-5.95 5.95v7.92c0 3.3 2.66 5.95 5.95 5.95h134.1c3.3 0 5.95-2.66 5.95-5.95v-7.92c0-3.3-2.66-5.95-5.95-5.95z" fill="none"/><use xlink:href="#h" transform="matrix(1,0,0,1,134,203.9820224719101) translate(12.209876543209873 14.222222222222223)"/><path d="M247.9 206.62c0-1.38 1.13-2.5 2.5-2.5h14.22c1.38 0 2.5 1.12 2.5 2.5v13.88c0 1.38-1.12 2.5-2.5 2.5h-14.2c-1.4 0-2.5-1.12-2.5-2.5z" fill="none"/><path d="M262.45 210.47l-4.94 4.17-4.92-4.17-1.02 1.15 5.95 5.04 5.97-5.04-1.02-1.15zM292.3 202c-3.48 0-6.3 2.82-6.3 6.3v8.4c0 3.48 2.82 6.3 6.3 6.3h69.4c3.48 0 6.3-2.82 6.3-6.3v-8.4c0-3.48-2.82-6.3-6.3-6.3z" fill="none"/><use xlink:href="#i" transform="matrix(1,0,0,1,296,204.1) translate(-0.07555555555555671 13.333333333333334)"/><path d="M375.2 202c-3.98 0-7.2 3.22-7.2 7.2v9.6c0 3.98 3.22 7.2 7.2 7.2h67.6c3.98 0 7.2-3.22 7.2-7.2v-9.6c0-3.98-3.22-7.2-7.2-7.2z" fill="none"/><use xlink:href="#j" transform="matrix(1,0,0,1,378,204.4) translate(9.648888888888887 14.444444444444445)"/><path d="M459.2 201c-3.98 0-7.2 3.22-7.2 7.2v9.6c0 3.98 3.22 7.2 7.2 7.2h64.6c3.98 0 7.2-3.22 7.2-7.2v-9.6c0-3.98-3.22-7.2-7.2-7.2z" fill="none"/><use xlink:href="#k" transform="matrix(1,0,0,1,462,203.4) translate(-2.2777777777777786 14.444444444444445)"/><path d="M533.2 201c-3.98 0-7.2 3.22-7.2 7.2v9.6c0 3.98 3.22 7.2 7.2 7.2h64.6c3.98 0 7.2-3.22 7.2-7.2v-9.6c0-3.98-3.22-7.2-7.2-7.2z" fill="none"/><use xlink:href="#l" transform="matrix(1,0,0,1,536,203.4) translate(15.944444444444443 14.444444444444445)"/><path d="M612.2 201c-3.98 0-7.2 3.22-7.2 7.2v9.6c0 3.98 3.22 7.2 7.2 7.2h64.6c3.98 0 7.2-3.22 7.2-7.2v-9.6c0-3.98-3.22-7.2-7.2-7.2z" fill="none"/><use xlink:href="#m" transform="matrix(1,0,0,1,615,203.4) translate(11.935555555555553 14.444444444444445)"/><path d="M868.5 160.5c0-1.38 1.12-2.5 2.5-2.5h22c1.38 0 2.5 1.12 2.5 2.5v20.96c0 1.38-1.12 2.5-2.5 2.5h-22c-1.38 0-2.5-1.12-2.5-2.5z" fill="none"/><path d="M875.8 171.97c-2-1.93-2-5.04 0-6.96 2-1.9 5.23-1.9 7.23 0 2 1.93 2 5.04 0 6.97-2 1.92-5.24 1.92-7.24 0m15.06 5l-3.43-3.3c-.3-.28-.84-.25-1.38.03l-1.5-1.42c1.96-2.47 1.77-5.97-.55-8.2-2.54-2.42-6.64-2.42-9.18 0-2.5 2.43-2.5 6.38 0 8.82 2.32 2.23 5.96 2.4 8.5.55l1.5 1.42c-.28.52-.3 1.04 0 1.33l3.42 3.3c.43.4 1.37.18 2.1-.5.7-.7.95-1.6.52-2.02" fill="#403f3f"/><path d="M251 203c0-1.38 1.12-2.5 2.5-2.5h15c1.38 0 2.5 1.12 2.5 2.5v16c0 1.38-1.12 2.5-2.5 2.5h-15c-1.38 0-2.5-1.12-2.5-2.5z" fill="none"/><path d="M266.14 207.56L261 212.2l-5.14-4.64-1.06 1.28 6.2 5.6 6.2-5.6-1.06-1.28z" fill="#403f3f"/><path d="M1076 204.5c0-1.38 1.12-2.5 2.5-2.5h15c1.38 0 2.5 1.12 2.5 2.5v16c0 1.38-1.12 2.5-2.5 2.5h-15c-1.38 0-2.5-1.12-2.5-2.5z" fill="none"/><path d="M1091.14 209.06l-5.14 4.64-5.14-4.64-1.06 1.28 6.2 5.6 6.2-5.6-1.06-1.28z" fill="#403f3f"/><path d="M82 237.5c0-1.38 1.12-2.5 2.5-2.5h1191c1.38 0 2.5 1.12 2.5 2.5v257c0 1.38-1.12 2.5-2.5 2.5H84.5c-1.38 0-2.5-1.12-2.5-2.5z" stroke="#ec6058" stroke-width="2" fill="#fff"/><path d="M82 235l1196 262m0-262L82 497" stroke="#ec6058" stroke-width="2" fill="none"/><use xlink:href="#c" transform="matrix(1,0,0,1,201.60000000000002,366) translate(478.5 57.833333333333336)"/><path d="M82 957.5c0-1.38 1.12-2.5 2.5-2.5h1191c1.38 0 2.5 1.12 2.5 2.5v43c0 1.38-1.12 2.5-2.5 2.5H84.5c-1.38 0-2.5-1.12-2.5-2.5z" fill="#f7bcae"/><use xlink:href="#n" transform="matrix(1,0,0,1,92,959.8) translate(536.7022222222222 23.944444444444443)"/><use xlink:href="#o" transform="matrix(1,0,0,1,92,959.8) translate(593.8044444444445 23.944444444444443)"/><use xlink:href="#p" transform="matrix(1,0,0,1,92,959.8) translate(613.8222222222222 23.944444444444443)"/><path d="M148 1044.5c0-1.38 1.12-2.5 2.5-2.5h215c1.38 0 2.5 1.12 2.5 2.5v143c0 1.38-1.12 2.5-2.5 2.5h-215c-1.38 0-2.5-1.12-2.5-2.5z" fill="#fff"/><use xlink:href="#q" transform="matrix(1,0,0,1,158,1056.8) translate(0 13.333333333333334)"/><use xlink:href="#r" transform="matrix(1,0,0,1,158,1056.8) translate(0 36.44444444444445)"/><use xlink:href="#s" transform="matrix(1,0,0,1,158,1056.8) translate(0 59.555555555555564)"/><use xlink:href="#t" transform="matrix(1,0,0,1,158,1056.8) translate(0 82.66666666666667)"/><use xlink:href="#u" transform="matrix(1,0,0,1,158,1056.8) translate(0 105.77777777777779)"/><path d="M432 1044.5c0-1.38 1.12-2.5 2.5-2.5h215c1.38 0 2.5 1.12 2.5 2.5v143c0 1.38-1.12 2.5-2.5 2.5h-215c-1.38 0-2.5-1.12-2.5-2.5z" fill="#fff"/><use xlink:href="#v" transform="matrix(1,0,0,1,442,1056.8) translate(0 13.333333333333334)"/><use xlink:href="#r" transform="matrix(1,0,0,1,442,1056.8) translate(0 36.44444444444445)"/><use xlink:href="#s" transform="matrix(1,0,0,1,442,1056.8) translate(0 59.555555555555564)"/><use xlink:href="#t" transform="matrix(1,0,0,1,442,1056.8) translate(0 82.66666666666667)"/><use xlink:href="#u" transform="matrix(1,0,0,1,442,1056.8) translate(0 105.77777777777779)"/><path d="M714 1044.5c0-1.38 1.12-2.5 2.5-2.5h215c1.38 0 2.5 1.12 2.5 2.5v143c0 1.38-1.12 2.5-2.5 2.5h-215c-1.38 0-2.5-1.12-2.5-2.5z" fill="#fff"/><use xlink:href="#w" transform="matrix(1,0,0,1,724,1056.8) translate(0 13.333333333333334)"/><use xlink:href="#x" transform="matrix(1,0,0,1,724,1056.8) translate(73.22666666666667 13.333333333333334)"/><use xlink:href="#r" transform="matrix(1,0,0,1,724,1056.8) translate(0 36.44444444444445)"/><use xlink:href="#s" transform="matrix(1,0,0,1,724,1056.8) translate(0 59.555555555555564)"/><use xlink:href="#t" transform="matrix(1,0,0,1,724,1056.8) translate(0 82.66666666666667)"/><use xlink:href="#u" transform="matrix(1,0,0,1,724,1056.8) translate(0 105.77777777777779)"/><path d="M997 1044.5c0-1.38 1.12-2.5 2.5-2.5h215c1.38 0 2.5 1.12 2.5 2.5v143c0 1.38-1.12 2.5-2.5 2.5h-215c-1.38 0-2.5-1.12-2.5-2.5z" fill="#fff"/><use xlink:href="#y" transform="matrix(1,0,0,1,1007,1056.8) translate(0 13.333333333333334)"/><use xlink:href="#r" transform="matrix(1,0,0,1,1007,1056.8) translate(0 36.44444444444445)"/><use xlink:href="#s" transform="matrix(1,0,0,1,1007,1056.8) translate(0 59.555555555555564)"/><use xlink:href="#t" transform="matrix(1,0,0,1,1007,1056.8) translate(0 82.66666666666667)"/><use xlink:href="#u" transform="matrix(1,0,0,1,1007,1056.8) translate(0 105.77777777777779)"/><path d="M138 234.5c0-1.38 1.12-2.5 2.5-2.5h271c1.38 0 2.5 1.12 2.5 2.5v263c0 1.38-1.12 2.5-2.5 2.5h-271c-1.38 0-2.5-1.12-2.5-2.5z" fill="none"/><use xlink:href="#z" transform="matrix(1,0,0,1,148,258.8) translate(0 63.61111111111111)"/><use xlink:href="#A" transform="matrix(1,0,0,1,148,258.8) translate(0 97.6111111111111)"/><use xlink:href="#B" transform="matrix(1,0,0,1,148,258.8) translate(53.38666666666667 97.6111111111111)"/><use xlink:href="#C" transform="matrix(1,0,0,1,148,258.8) translate(105.38666666666667 97.6111111111111)"/><use xlink:href="#D" transform="matrix(1,0,0,1,148,258.8) translate(148.62222222222223 97.6111111111111)"/><use xlink:href="#E" transform="matrix(1,0,0,1,148,258.8) translate(172.14222222222224 97.6111111111111)"/><use xlink:href="#F" transform="matrix(1,0,0,1,148,258.8) translate(0 120.72222222222221)"/><use xlink:href="#G" transform="matrix(1,0,0,1,148,258.8) translate(95.09333333333333 120.72222222222221)"/><use xlink:href="#H" transform="matrix(1,0,0,1,148,258.8) translate(176.19555555555556 120.72222222222221)"/><use xlink:href="#I" transform="matrix(1,0,0,1,148,258.8) translate(208.74666666666667 120.72222222222221)"/><use xlink:href="#J" transform="matrix(1,0,0,1,148,258.8) translate(0 143.83333333333334)"/><use xlink:href="#K" transform="matrix(1,0,0,1,148,258.8) translate(63.946666666666665 143.83333333333334)"/><use xlink:href="#L" transform="matrix(1,0,0,1,148,258.8) translate(119.03999999999999 143.83333333333334)"/><use xlink:href="#M" transform="matrix(1,0,0,1,148,258.8) translate(173.65333333333334 143.83333333333334)"/><use xlink:href="#N" transform="matrix(1,0,0,1,148,258.8) translate(0 166.94444444444446)"/><use xlink:href="#O" transform="matrix(1,0,0,1,148,258.8) translate(67.28888888888889 166.94444444444446)"/><path d="M434 597.5c0-1.38 1.12-2.5 2.5-2.5h83c1.38 0 2.5 1.12 2.5 2.5v65c0 1.38-1.12 2.5-2.5 2.5h-83c-1.38 0-2.5-1.12-2.5-2.5z" stroke="#ec6058" stroke-width="2" fill="#fff"/><path d="M434 595l88 70m0-70l-88 70" stroke="#ec6058" stroke-width="2" fill="none"/><use xlink:href="#c" transform="matrix(1,0,0,1,442.8,630) translate(0 19.333333333333336)"/><path d="M553 597.5c0-1.38 1.12-2.5 2.5-2.5h83c1.38 0 2.5 1.12 2.5 2.5v65c0 1.38-1.12 2.5-2.5 2.5h-83c-1.38 0-2.5-1.12-2.5-2.5z" stroke="#ec6058" stroke-width="2" fill="#fff"/><path d="M553 595l88 70m0-70l-88 70" stroke="#ec6058" stroke-width="2" fill="none"/><use xlink:href="#c" transform="matrix(1,0,0,1,561.8,630) translate(0 19.333333333333336)"/><path d="M434 709.5c0-1.38 1.12-2.5 2.5-2.5h83c1.38 0 2.5 1.12 2.5 2.5v65c0 1.38-1.12 2.5-2.5 2.5h-83c-1.38 0-2.5-1.12-2.5-2.5z" stroke="#ec6058" stroke-width="2" fill="#fff"/><path d="M434 707l88 70m0-70l-88 70" stroke="#ec6058" stroke-width="2" fill="none"/><g><use xlink:href="#c" transform="matrix(1,0,0,1,442.8,742) translate(0 19.333333333333336)"/></g><path d="M553 709.5c0-1.38 1.12-2.5 2.5-2.5h83c1.38 0 2.5 1.12 2.5 2.5v65c0 1.38-1.12 2.5-2.5 2.5h-83c-1.38 0-2.5-1.12-2.5-2.5z" stroke="#ec6058" stroke-width="2" fill="#fff"/><path d="M553 707l88 70m0-70l-88 70" stroke="#ec6058" stroke-width="2" fill="none"/><g><use xlink:href="#c" transform="matrix(1,0,0,1,561.8,742) translate(0 19.333333333333336)"/></g><path d="M434 821.5c0-1.38 1.12-2.5 2.5-2.5h83c1.38 0 2.5 1.12 2.5 2.5v65c0 1.38-1.12 2.5-2.5 2.5h-83c-1.38 0-2.5-1.12-2.5-2.5z" stroke="#ec6058" stroke-width="2" fill="#fff"/><path d="M434 819l88 70m0-70l-88 70" stroke="#ec6058" stroke-width="2" fill="none"/><g><use xlink:href="#c" transform="matrix(1,0,0,1,442.8,854.0000000000001) translate(0 19.333333333333336)"/></g><path d="M553 821.5c0-1.38 1.12-2.5 2.5-2.5h83c1.38 0 2.5 1.12 2.5 2.5v65c0 1.38-1.12 2.5-2.5 2.5h-83c-1.38 0-2.5-1.12-2.5-2.5z" stroke="#ec6058" stroke-width="2" fill="#fff"/><path d="M553 819l88 70m0-70l-88 70" stroke="#ec6058" stroke-width="2" fill="none"/><g><use xlink:href="#c" transform="matrix(1,0,0,1,561.8,854.0000000000001) translate(0 19.333333333333336)"/></g><path d="M424.5 542.5c0-1.38 1.12-2.5 2.5-2.5h202c1.38 0 2.5 1.12 2.5 2.5v27c0 1.38-1.12 2.5-2.5 2.5H427c-1.38 0-2.5-1.12-2.5-2.5z" fill="none"/><g><use xlink:href="#P" transform="matrix(1,0,0,1,434.5,543.2) translate(0 17.444444444444443)"/><use xlink:href="#Q" transform="matrix(1,0,0,1,434.5,543.2) translate(64.17777777777778 17.444444444444443)"/></g><path d="M157.6 595c-5.3 0-9.6 4.3-9.6 9.6v12.8c0 5.3 4.3 9.6 9.6 9.6h187.8c5.3 0 9.6-4.3 9.6-9.6v-12.8c0-5.3-4.3-9.6-9.6-9.6z" fill="#f7bcae"/><g><use xlink:href="#d" transform="matrix(1,0,0,1,158,598.2) translate(67.76666666666667 17.444444444444443)"/><use xlink:href="#e" transform="matrix(1,0,0,1,158,598.2) translate(104.94 17.444444444444443)"/></g><path d="M157.6 653c-5.3 0-9.6 4.3-9.6 9.6v12.8c0 5.3 4.3 9.6 9.6 9.6h187.8c5.3 0 9.6-4.3 9.6-9.6v-12.8c0-5.3-4.3-9.6-9.6-9.6z" fill="#f7bcae"/><g><use xlink:href="#R" transform="matrix(1,0,0,1,158,656.2) translate(36.25555555555555 17.444444444444443)"/><use xlink:href="#S" transform="matrix(1,0,0,1,158,656.2) translate(90.05111111111111 17.444444444444443)"/></g><path d="M138 542.5c0-1.38 1.12-2.5 2.5-2.5h202c1.38 0 2.5 1.12 2.5 2.5v27c0 1.38-1.12 2.5-2.5 2.5h-202c-1.38 0-2.5-1.12-2.5-2.5z" fill="none"/><g><use xlink:href="#T" transform="matrix(1,0,0,1,148,543.2) translate(0 17.444444444444443)"/></g><path d="M722.5 597.5c0-1.38 1.12-2.5 2.5-2.5h202c1.38 0 2.5 1.12 2.5 2.5v230c0 1.38-1.12 2.5-2.5 2.5H725c-1.38 0-2.5-1.12-2.5-2.5zM722.5 595l207 235m0-235l-207 235" stroke="#ec6058" stroke-width="2" fill="none"/><g><use xlink:href="#c" transform="matrix(1,0,0,1,743.2,712.5) translate(83 52.333333333333336)"/></g><path d="M732.1 857c-5.3 0-9.6 4.3-9.6 9.6v12.8c0 5.3 4.3 9.6 9.6 9.6h187.8c5.3 0 9.6-4.3 9.6-9.6v-12.8c0-5.3-4.3-9.6-9.6-9.6z" fill="#f7bcae"/><g><use xlink:href="#U" transform="matrix(1,0,0,1,732.5,860.2) translate(40.52222222222222 17.444444444444443)"/><use xlink:href="#V" transform="matrix(1,0,0,1,732.5,860.2) translate(83.25999999999999 17.444444444444443)"/></g><path d="M712.5 542.5c0-1.38 1.12-2.5 2.5-2.5h202c1.38 0 2.5 1.12 2.5 2.5v27c0 1.38-1.12 2.5-2.5 2.5H715c-1.38 0-2.5-1.12-2.5-2.5z" fill="none"/><g><use xlink:href="#W" transform="matrix(1,0,0,1,722.5,543.2) translate(0 17.444444444444443)"/></g><path d="M1009 597.5c0-1.38 1.12-2.5 2.5-2.5h202c1.38 0 2.5 1.12 2.5 2.5v200c0 1.38-1.12 2.5-2.5 2.5h-202c-1.38 0-2.5-1.12-2.5-2.5zM1009 595l207 205m0-205l-207 205" stroke="#ec6058" stroke-width="2" fill="none"/><g><use xlink:href="#c" transform="matrix(1,0,0,1,1029.7,697.5) translate(83 46.333333333333336)"/></g><path d="M999 817.5c0-1.38 1.12-2.5 2.5-2.5h202c1.38 0 2.5 1.12 2.5 2.5v22c0 1.38-1.12 2.5-2.5 2.5h-202c-1.38 0-2.5-1.12-2.5-2.5z" fill="none"/><g><use xlink:href="#X" transform="matrix(1,0,0,1,1009,817.7) translate(0 17.555555555555557)"/></g><path d="M1018.6 857c-5.3 0-9.6 4.3-9.6 9.6v12.8c0 5.3 4.3 9.6 9.6 9.6h187.8c5.3 0 9.6-4.3 9.6-9.6v-12.8c0-5.3-4.3-9.6-9.6-9.6z" fill="#f7bcae"/><g><use xlink:href="#U" transform="matrix(1,0,0,1,1019,860.2) translate(50.78 17.444444444444443)"/><use xlink:href="#Y" transform="matrix(1,0,0,1,1019,860.2) translate(93.51777777777778 17.444444444444443)"/></g><path d="M999 536.5c0-1.38 1.12-2.5 2.5-2.5h202c1.38 0 2.5 1.12 2.5 2.5v27c0 1.38-1.12 2.5-2.5 2.5h-202c-1.38 0-2.5-1.12-2.5-2.5z" fill="none"/><g><use xlink:href="#Z" transform="matrix(1,0,0,1,1009,537.2) translate(0 17.444444444444443)"/></g><defs><path fill="#3d4752" d="M-4-622v-74h500v74H285V0h-76v-622H-4" id="aa"/><path fill="#3d4752" d="M81 0v-500h74V0H81zm0-613v-87h74v87H81" id="ab"/><path fill="#3d4752" d="M331-432H173v233c0 109 6 139 72 139 28 0 89-5 89-5l4 65s-66 11-101 11C134 11 98-28 98-172v-260H27v-68h71v-153h75v153h158v68" id="ac"/><path fill="#3d4752" d="M84 0v-718h74V0H84" id="ad"/><path fill="#3d4752" d="M258-58c75 0 183-9 183-9l2 61S330 10 249 10C99 10 50-77 50-247c0-190 83-263 210-263 151 0 219 111 197 292H126c1 105 33 160 132 160zM126-279h260c0-120-39-164-126-164-86 0-134 47-134 164" id="ae"/><g id="a"><use transform="matrix(0.013333333333333334,0,0,0.013333333333333334,0,0)" xlink:href="#aa"/><use transform="matrix(0.013333333333333334,0,0,0.013333333333333334,6.5600000000000005,0)" xlink:href="#ab"/><use transform="matrix(0.013333333333333334,0,0,0.013333333333333334,9.706666666666667,0)" xlink:href="#ac"/><use transform="matrix(0.013333333333333334,0,0,0.013333333333333334,14.546666666666667,0)" xlink:href="#ad"/><use transform="matrix(0.013333333333333334,0,0,0.013333333333333334,17.773333333333333,0)" xlink:href="#ae"/></g><path fill="#3d4752" d="M162 0H87v-730h75v254s84-34 154-34c138 0 169 68 169 249V0h-75v-260c0-132-15-181-105-181-67 0-143 29-143 29V0" id="af"/><path fill="#3d4752" d="M87 222v-722h75v35s75-45 149-45c126 0 181 75 181 254 0 196-63 266-218 266-47 0-98-8-112-11v223H87zm214-663c-66 0-139 39-139 39v334c13 3 65 11 108 11 110 0 146-55 146-201 0-135-43-183-115-183" id="ag"/><path fill="#3d4752" d="M60-322v-114h82v114H60zM60 0v-114h82V0H60" id="ah"/><path fill="#3d4752" d="M88-15l279-694 71 26L159 10" id="ai"/><path fill="#3d4752" d="M28-500h75L203-68h16l120-422h79L537-68h16l101-432h75L610 0H483L378-391 271 0H146" id="aj"/><path fill="#3d4752" d="M77 0v-114h81V0H77" id="ak"/><path fill="#3d4752" d="M162 0H87v-500h75v34c-4-5 120-52 180-41 41 7 72 18 92 42 29-11 112-45 181-45 136 0 169 65 169 250V0h-75v-237c0-153-10-204-105-204-68 0-138 36-140 37 21 98 9 281 12 404h-75v-258c0-138-14-183-105-183-67 0-134 37-134 37V0" id="al"/><path fill="#3d4752" d="M24-500h75L224-72h34l125-428h75L250 222h-75L239 0h-73" id="am"/><path fill="#3d4752" d="M456-700V0h-75v-33s-77 43-152 43C132 10 50-32 50-248c0-175 56-262 209-262 43 0 107 10 122 13v-203h75zM239-59c67 0 142-37 142-37v-335c-15-2-78-11-118-11-105 0-138 65-138 196 0 160 55 187 114 187" id="an"/><path fill="#3d4752" d="M265-510c151 0 213 84 213 255 0 173-44 265-213 265S50-74 50-257c0-172 57-253 215-253zm0 453c118 0 136-66 136-198 0-133-40-187-136-187-106 0-138 48-138 185 0 140 20 200 138 200" id="ao"/><path fill="#3d4752" d="M433-347v246c2 32 26 42 58 46l-3 65c-60 0-92-11-118-38 0 0-90 38-185 38C98 10 49-45 49-143c0-96 49-139 152-148l158-15c7-80-16-132-87-132-73 0-191 13-191 13l-3-65s120-20 197-20c106 0 158 50 158 163zm-74 102l-148 12c-61 6-86 37-86 88 0 58 26 90 71 90 76 0 163-30 163-30v-160" id="ap"/><path fill="#3d4752" d="M162 0H87v-500h75v33s84-43 155-43c137 0 168 68 168 250V0h-74v-259c0-133-15-182-106-182-66 0-143 37-143 37V0" id="aq"/><path fill="#3d4752" d="M257-510c46 0 136 15 136 15l-2 65s-80-9-118-9c-115 0-146 48-146 180 0 146 23 199 146 199 38 0 119-9 119-9l3 65s-94 14-139 14C96 10 50-63 50-259c0-181 58-251 207-251" id="ar"/><g id="b"><use transform="matrix(0.013333333333333334,0,0,0.013333333333333334,0,0)" xlink:href="#af"/><use transform="matrix(0.013333333333333334,0,0,0.013333333333333334,7.533333333333334,0)" xlink:href="#ac"/><use transform="matrix(0.013333333333333334,0,0,0.013333333333333334,12.373333333333335,0)" xlink:href="#ac"/><use transform="matrix(0.013333333333333334,0,0,0.013333333333333334,17.213333333333335,0)" xlink:href="#ag"/><use transform="matrix(0.013333333333333334,0,0,0.013333333333333334,24.44,0)" xlink:href="#ah"/><use transform="matrix(0.013333333333333334,0,0,0.013333333333333334,26.8,0)" xlink:href="#ai"/><use transform="matrix(0.013333333333333334,0,0,0.013333333333333334,33.86666666666667,0)" xlink:href="#ai"/><use transform="matrix(0.013333333333333334,0,0,0.013333333333333334,40.93333333333334,0)" xlink:href="#aj"/><use transform="matrix(0.013333333333333334,0,0,0.013333333333333334,51.02666666666667,0)" xlink:href="#aj"/><use transform="matrix(0.013333333333333334,0,0,0.013333333333333334,61.120000000000005,0)" xlink:href="#aj"/><use transform="matrix(0.013333333333333334,0,0,0.013333333333333334,71.21333333333334,0)" xlink:href="#ak"/><use transform="matrix(0.013333333333333334,0,0,0.013333333333333334,74.52000000000001,0)" xlink:href="#al"/><use transform="matrix(0.013333333333333334,0,0,0.013333333333333334,86.04,0)" xlink:href="#am"/><use transform="matrix(0.013333333333333334,0,0,0.013333333333333334,92.46666666666667,0)" xlink:href="#an"/><use transform="matrix(0.013333333333333334,0,0,0.013333333333333334,99.70666666666666,0)" xlink:href="#ao"/><use transform="matrix(0.013333333333333334,0,0,0.013333333333333334,106.74666666666667,0)" xlink:href="#al"/><use transform="matrix(0.013333333333333334,0,0,0.013333333333333334,118.26666666666668,0)" xlink:href="#ap"/><use transform="matrix(0.013333333333333334,0,0,0.013333333333333334,125.22666666666665,0)" xlink:href="#ab"/><use transform="matrix(0.013333333333333334,0,0,0.013333333333333334,128.37333333333333,0)" xlink:href="#aq"/><use transform="matrix(0.013333333333333334,0,0,0.013333333333333334,135.94666666666666,0)" xlink:href="#ak"/><use transform="matrix(0.013333333333333334,0,0,0.013333333333333334,139.25333333333333,0)" xlink:href="#ar"/><use transform="matrix(0.013333333333333334,0,0,0.013333333333333334,145.07999999999998,0)" xlink:href="#ao"/><use transform="matrix(0.013333333333333334,0,0,0.013333333333333334,152.11999999999998,0)" xlink:href="#al"/></g><path fill="#3d4752" d="M475-687l-7 70s-138-16-196-16c-98 0-151 32-151 110 0 91 48 106 170 133 138 31 199 65 199 189C490-51 405 9 266 9 190 9 53-12 53-12l8-70s133 17 204 17c98 0 147-37 147-133 0-78-41-99-154-122-143-30-214-65-214-201 0-130 87-186 228-186 77 0 203 20 203 20" id="as"/><path fill="#3d4752" d="M262 239C104 239 47 204 47 84c0-58 27-85 79-124-18-12-27-38-27-69 0-19 33-79 33-79-41-19-78-58-78-151 0-123 75-171 186-171 50 0 104 13 104 13l146-3v64h-90c18 19 31 44 31 97 0 149-98 180-243 165 0 0-18 44-18 57 0 40 9 46 121 46 143 0 194 28 194 147 0 116-82 163-223 163zM286-5c-36 0-109-5-109-5-41 31-56 49-56 88 0 69 29 94 142 94 101 0 146-27 146-93 0-76-33-84-123-84zm-49-229c84 0 119-26 119-105 0-86-32-106-117-106-74 0-110 27-110 106 0 72 25 105 108 105" id="at"/><g id="d"><use transform="matrix(0.017777777777777778,0,0,0.017777777777777778,0,0)" xlink:href="#as"/><use transform="matrix(0.017777777777777778,0,0,0.017777777777777778,9.493333333333334,0)" xlink:href="#ab"/><use transform="matrix(0.017777777777777778,0,0,0.017777777777777778,13.688888888888892,0)" xlink:href="#at"/><use transform="matrix(0.017777777777777778,0,0,0.017777777777777778,22.897777777777776,0)" xlink:href="#aq"/></g><g id="e"><use transform="matrix(0.017777777777777778,0,0,0.017777777777777778,0,0)" xlink:href="#ab"/><use transform="matrix(0.017777777777777778,0,0,0.017777777777777778,4.195555555555556,0)" xlink:href="#aq"/></g><path fill="#3d4752" d="M491-83l3 70S383 10 304 10C97 10 51-117 51-346c0-235 49-360 253-360 91 0 191 23 191 23l-4 69s-109-17-179-17c-155 0-182 93-182 285 0 188 26 281 184 281 62 0 177-18 177-18" id="au"/><path fill="#3d4752" d="M87 0v-500h75v66s77-58 174-76v78c-94 18-174 69-174 69V0H87" id="av"/><g id="f"><use transform="matrix(0.017777777777777778,0,0,0.017777777777777778,0,0)" xlink:href="#au"/><use transform="matrix(0.017777777777777778,0,0,0.017777777777777778,9.528888888888888,0)" xlink:href="#ap"/><use transform="matrix(0.017777777777777778,0,0,0.017777777777777778,18.808888888888887,0)" xlink:href="#av"/><use transform="matrix(0.017777777777777778,0,0,0.017777777777777778,25.137777777777778,0)" xlink:href="#ac"/></g><path fill="#3d4752" d="M205 0l-28-72H64L36 0H1l101-248h38L239 0h-34zm-38-99l-47-123c-12 45-31 82-46 123h93" id="aw"/><path fill="#3d4752" d="M24 0v-261h32V0H24" id="ax"/><g id="g"><use transform="matrix(0.04938271604938272,0,0,0.04938271604938272,0,0)" xlink:href="#aw"/><use transform="matrix(0.04938271604938272,0,0,0.04938271604938272,11.851851851851853,0)" xlink:href="#ax"/><use transform="matrix(0.04938271604938272,0,0,0.04938271604938272,15.753086419753087,0)" xlink:href="#ax"/></g><path fill="#3d4752" d="M30-248c118-7 216 8 213 122C240-48 200 0 122 0H30v-248zM63-27c89 8 146-16 146-99s-60-101-146-95v194" id="ay"/><path fill="#3d4752" d="M100-194c63 0 86 42 84 106H49c0 40 14 67 53 68 26 1 43-12 49-29l28 8c-11 28-37 45-77 45C44 4 14-33 15-96c1-61 26-98 85-98zm52 81c6-60-76-77-97-28-3 7-6 17-6 28h103" id="az"/><path fill="#3d4752" d="M115-194c55 1 70 41 70 98S169 2 115 4C84 4 66-9 55-30l1 105H24l-1-265h31l2 30c10-21 28-34 59-34zm-8 174c40 0 45-34 45-75s-6-73-45-74c-42 0-51 32-51 76 0 43 10 73 51 73" id="aA"/><path fill="#3d4752" d="M141-36C126-15 110 5 73 4 37 3 15-17 15-53c-1-64 63-63 125-63 3-35-9-54-41-54-24 1-41 7-42 31l-33-3c5-37 33-52 76-52 45 0 72 20 72 64v82c-1 20 7 32 28 27v20c-31 9-61-2-59-35zM48-53c0 20 12 33 32 33 41-3 63-29 60-74-43 2-92-5-92 41" id="aB"/><path fill="#3d4752" d="M114-163C36-179 61-72 57 0H25l-1-190h30c1 12-1 29 2 39 6-27 23-49 58-41v29" id="aC"/><path fill="#3d4752" d="M59-47c-2 24 18 29 38 22v24C64 9 27 4 27-40v-127H5v-23h24l9-43h21v43h35v23H59v120" id="aD"/><path fill="#3d4752" d="M210-169c-67 3-38 105-44 169h-31v-121c0-29-5-50-35-48C34-165 62-65 56 0H25l-1-190h30c1 10-1 24 2 32 10-44 99-50 107 0 11-21 27-35 58-36 85-2 47 119 55 194h-31v-121c0-29-5-49-35-48" id="aE"/><path fill="#3d4752" d="M117-194c89-4 53 116 60 194h-32v-121c0-31-8-49-39-48C34-167 62-67 57 0H25l-1-190h30c1 10-1 24 2 32 11-22 29-35 61-36" id="aF"/><path fill="#3d4752" d="M135-143c-3-34-86-38-87 0 15 53 115 12 119 90S17 21 10-45l28-5c4 36 97 45 98 0-10-56-113-15-118-90-4-57 82-63 122-42 12 7 21 19 24 35" id="aG"/><g id="h"><use transform="matrix(0.04938271604938272,0,0,0.04938271604938272,0,0)" xlink:href="#ay"/><use transform="matrix(0.04938271604938272,0,0,0.04938271604938272,12.790123456790125,0)" xlink:href="#az"/><use transform="matrix(0.04938271604938272,0,0,0.04938271604938272,22.66666666666667,0)" xlink:href="#aA"/><use transform="matrix(0.04938271604938272,0,0,0.04938271604938272,32.543209876543216,0)" xlink:href="#aB"/><use transform="matrix(0.04938271604938272,0,0,0.04938271604938272,42.41975308641976,0)" xlink:href="#aC"/><use transform="matrix(0.04938271604938272,0,0,0.04938271604938272,48.296296296296305,0)" xlink:href="#aD"/><use transform="matrix(0.04938271604938272,0,0,0.04938271604938272,53.23456790123457,0)" xlink:href="#aE"/><use transform="matrix(0.04938271604938272,0,0,0.04938271604938272,68.00000000000001,0)" xlink:href="#az"/><use transform="matrix(0.04938271604938272,0,0,0.04938271604938272,77.87654320987656,0)" xlink:href="#aF"/><use transform="matrix(0.04938271604938272,0,0,0.04938271604938272,87.7530864197531,0)" xlink:href="#aD"/><use transform="matrix(0.04938271604938272,0,0,0.04938271604938272,92.69135802469137,0)" xlink:href="#aG"/></g><path fill="#3d4752" d="M29 0l190-696h169L575-1h-76l-53-174H156L106 0H29zm248-625L174-249h256L327-625h-50" id="aH"/><path fill="#3d4752" d="M397-500h74V0h-74v-32s-78 42-148 42C109 10 80-54 80-239v-261h74v260c0 138 12 183 106 183 66 0 137-37 137-37v-406" id="aI"/><g id="i"><use transform="matrix(0.017777777777777778,0,0,0.017777777777777778,0,0)" xlink:href="#aH"/><use transform="matrix(0.017777777777777778,0,0,0.017777777777777778,10.737777777777778,0)" xlink:href="#ar"/><use transform="matrix(0.017777777777777778,0,0,0.017777777777777778,18.506666666666668,0)" xlink:href="#ar"/><use transform="matrix(0.017777777777777778,0,0,0.017777777777777778,26.275555555555556,0)" xlink:href="#ao"/><use transform="matrix(0.017777777777777778,0,0,0.017777777777777778,35.662222222222226,0)" xlink:href="#aI"/><use transform="matrix(0.017777777777777778,0,0,0.017777777777777778,45.6,0)" xlink:href="#aq"/><use transform="matrix(0.017777777777777778,0,0,0.017777777777777778,55.69777777777778,0)" xlink:href="#ac"/></g><path fill="#3d4752" d="M337 0H90v-696h247c200 0 256 140 256 337C593-160 540 0 337 0zm176-359c0-146-33-264-176-264H166v550h171c143 0 176-139 176-286" id="aJ"/><path fill="#3d4752" d="M416-491l-2 65s-111-16-175-16c-62 0-108 16-108 75 0 47 23 61 122 76 132 21 180 48 180 145 0 117-74 156-195 156C174 10 62-9 62-9l4-65s114 17 165 17c82 0 126-18 126-86 0-52-26-64-126-80-122-19-176-43-176-141 0-110 89-146 180-146 75 0 181 19 181 19" id="aK"/><g id="j"><use transform="matrix(0.017777777777777778,0,0,0.017777777777777778,0,0)" xlink:href="#aJ"/><use transform="matrix(0.017777777777777778,0,0,0.017777777777777778,11.413333333333334,0)" xlink:href="#ae"/><use transform="matrix(0.017777777777777778,0,0,0.017777777777777778,20.42666666666667,0)" xlink:href="#ap"/><use transform="matrix(0.017777777777777778,0,0,0.017777777777777778,29.70666666666667,0)" xlink:href="#ad"/><use transform="matrix(0.017777777777777778,0,0,0.017777777777777778,34.00888888888889,0)" xlink:href="#aK"/></g><path fill="#3d4752" d="M488 0L363-263H167V0H90v-696h256c149 0 221 62 221 212 0 107-38 174-127 201L573 0h-85zm0-484c0-96-45-139-142-139H167v287h180c106 0 141-59 141-148" id="aL"/><g id="k"><use transform="matrix(0.017777777777777778,0,0,0.017777777777777778,0,0)" xlink:href="#aL"/><use transform="matrix(0.017777777777777778,0,0,0.017777777777777778,11.093333333333334,0)" xlink:href="#ae"/><use transform="matrix(0.017777777777777778,0,0,0.017777777777777778,20.10666666666667,0)" xlink:href="#at"/><use transform="matrix(0.017777777777777778,0,0,0.017777777777777778,29.31555555555556,0)" xlink:href="#ab"/><use transform="matrix(0.017777777777777778,0,0,0.017777777777777778,33.51111111111111,0)" xlink:href="#aK"/><use transform="matrix(0.017777777777777778,0,0,0.017777777777777778,42.20444444444444,0)" xlink:href="#ac"/><use transform="matrix(0.017777777777777778,0,0,0.017777777777777778,48.65777777777778,0)" xlink:href="#av"/><use transform="matrix(0.017777777777777778,0,0,0.017777777777777778,54.98666666666667,0)" xlink:href="#am"/></g><g id="l"><use transform="matrix(0.017777777777777778,0,0,0.017777777777777778,0,0)" xlink:href="#as"/><use transform="matrix(0.017777777777777778,0,0,0.017777777777777778,9.493333333333334,0)" xlink:href="#ae"/><use transform="matrix(0.017777777777777778,0,0,0.017777777777777778,18.506666666666668,0)" xlink:href="#ad"/><use transform="matrix(0.017777777777777778,0,0,0.017777777777777778,22.808888888888895,0)" xlink:href="#ad"/></g><path fill="#3d4752" d="M519 0v-314H167V0H90v-696h77v308h352v-308h76V0h-76" id="aM"/><g id="m"><use transform="matrix(0.017777777777777778,0,0,0.017777777777777778,0,0)" xlink:href="#aM"/><use transform="matrix(0.017777777777777778,0,0,0.017777777777777778,12.177777777777777,0)" xlink:href="#ae"/><use transform="matrix(0.017777777777777778,0,0,0.017777777777777778,21.191111111111113,0)" xlink:href="#ad"/><use transform="matrix(0.017777777777777778,0,0,0.017777777777777778,25.493333333333336,0)" xlink:href="#ag"/></g><g id="n"><use transform="matrix(0.017777777777777778,0,0,0.017777777777777778,0,0)" xlink:href="#aL"/><use transform="matrix(0.017777777777777778,0,0,0.017777777777777778,11.093333333333334,0)" xlink:href="#ae"/><use transform="matrix(0.017777777777777778,0,0,0.017777777777777778,20.10666666666667,0)" xlink:href="#ac"/><use transform="matrix(0.017777777777777778,0,0,0.017777777777777778,26.560000000000002,0)" xlink:href="#aI"/><use transform="matrix(0.017777777777777778,0,0,0.017777777777777778,36.49777777777778,0)" xlink:href="#av"/><use transform="matrix(0.017777777777777778,0,0,0.017777777777777778,42.82666666666667,0)" xlink:href="#aq"/></g><g id="o"><use transform="matrix(0.017777777777777778,0,0,0.017777777777777778,0,0)" xlink:href="#ac"/><use transform="matrix(0.017777777777777778,0,0,0.017777777777777778,6.453333333333333,0)" xlink:href="#ao"/></g><g id="p"><use transform="matrix(0.017777777777777778,0,0,0.017777777777777778,0,0)" xlink:href="#ac"/><use transform="matrix(0.017777777777777778,0,0,0.017777777777777778,6.453333333333333,0)" xlink:href="#ao"/><use transform="matrix(0.017777777777777778,0,0,0.017777777777777778,15.84,0)" xlink:href="#ag"/></g><path fill="#3d4752" d="M23 0l165-692h231L582 0H464l-38-136H175L141 0H23zm256-584l-79 335h203l-77-335h-47" id="aN"/><path fill="#3d4752" d="M309-511c136 0 195 68 195 255 0 208-66 267-244 267C208 11 74-2 74-2v-704h114v222s68-27 121-27zM259-92c107 0 129-46 129-164 0-110-30-149-94-149-44 0-106 14-106 14v294s52 5 71 5" id="aO"/><path fill="#3d4752" d="M265-511c166 0 224 100 224 259 0 161-52 263-224 263S40-89 40-252c0-160 56-259 225-259zm0 419c89 0 108-54 108-160 0-105-27-155-108-155-85 0-109 48-109 155 0 108 20 160 109 160" id="aP"/><path fill="#3d4752" d="M372-499h114V0H372v-25s-78 36-132 36C96 11 67-63 67-238v-261h114v260c0 106 6 147 82 147 44 0 109-23 109-23v-384" id="aQ"/><path fill="#3d4752" d="M331-396H196v204c0 69 2 95 52 95 28 0 81-3 81-3l5 98s-67 14-102 14C117 12 82-32 82-176v-220H19v-103h63v-145h114v145h135v103" id="aR"/><g id="q"><use transform="matrix(0.017777777777777778,0,0,0.017777777777777778,0,0)" xlink:href="#aN"/><use transform="matrix(0.017777777777777778,0,0,0.017777777777777778,10.755555555555556,0)" xlink:href="#aO"/><use transform="matrix(0.017777777777777778,0,0,0.017777777777777778,20.42666666666667,0)" xlink:href="#aP"/><use transform="matrix(0.017777777777777778,0,0,0.017777777777777778,29.831111111111117,0)" xlink:href="#aQ"/><use transform="matrix(0.017777777777777778,0,0,0.017777777777777778,39.78666666666667,0)" xlink:href="#aR"/></g><path fill="#3d4752" d="M471 0H90v-696h77v622h304V0" id="aS"/><g id="s"><use transform="matrix(0.017777777777777778,0,0,0.017777777777777778,0,0)" xlink:href="#aS"/><use transform="matrix(0.017777777777777778,0,0,0.017777777777777778,9.12,0)" xlink:href="#ao"/><use transform="matrix(0.017777777777777778,0,0,0.017777777777777778,18.506666666666668,0)" xlink:href="#av"/><use transform="matrix(0.017777777777777778,0,0,0.017777777777777778,24.83555555555556,0)" xlink:href="#ae"/><use transform="matrix(0.017777777777777778,0,0,0.017777777777777778,33.848888888888894,0)" xlink:href="#al"/></g><path fill="#3d4752" d="M85 0v-696h77V0H85" id="aT"/><g id="t"><use transform="matrix(0.017777777777777778,0,0,0.017777777777777778,0,0)" xlink:href="#aT"/><use transform="matrix(0.017777777777777778,0,0,0.017777777777777778,4.391111111111111,0)" xlink:href="#ag"/><use transform="matrix(0.017777777777777778,0,0,0.017777777777777778,14.026666666666667,0)" xlink:href="#aK"/><use transform="matrix(0.017777777777777778,0,0,0.017777777777777778,22.72,0)" xlink:href="#aI"/><use transform="matrix(0.017777777777777778,0,0,0.017777777777777778,32.657777777777774,0)" xlink:href="#al"/></g><g id="u"><use transform="matrix(0.017777777777777778,0,0,0.017777777777777778,0,0)" xlink:href="#aJ"/><use transform="matrix(0.017777777777777778,0,0,0.017777777777777778,11.413333333333334,0)" xlink:href="#ao"/><use transform="matrix(0.017777777777777778,0,0,0.017777777777777778,20.8,0)" xlink:href="#ad"/><use transform="matrix(0.017777777777777778,0,0,0.017777777777777778,25.10222222222222,0)" xlink:href="#ao"/><use transform="matrix(0.017777777777777778,0,0,0.017777777777777778,34.488888888888894,0)" xlink:href="#av"/></g><path fill="#3d4752" d="M236-692c0 212 1 365 1 579C237 40 175 71 31 71V-39c61 0 88-13 88-82v-571h117" id="aU"/><path fill="#3d4752" d="M429-488l-2 97s-120-16-180-16c-59 0-83 13-83 51 0 31 21 39 104 52 132 21 176 56 176 155 0 117-76 160-199 160-71 0-187-22-187-22l4-97s121 16 172 16c70 0 96-14 96-54 0-32-16-41-96-54-128-21-184-49-184-153 0-114 89-158 189-158 73 0 190 23 190 23" id="aV"/><g id="v"><use transform="matrix(0.017777777777777778,0,0,0.017777777777777778,0,0)" xlink:href="#aU"/><use transform="matrix(0.017777777777777778,0,0,0.017777777777777778,5.546666666666667,0)" xlink:href="#aP"/><use transform="matrix(0.017777777777777778,0,0,0.017777777777777778,14.95111111111111,0)" xlink:href="#aO"/><use transform="matrix(0.017777777777777778,0,0,0.017777777777777778,24.622222222222216,0)" xlink:href="#aV"/></g><path fill="#3d4752" d="M328-209H194V0H77v-692h251c157 0 235 78 235 235s-78 248-235 248zM194-322h133c79 0 116-51 116-135 0-83-37-122-116-122H194v257" id="aW"/><path fill="#3d4752" d="M448-342v206c1 35 12 45 41 50l-4 97c-78 0-104-12-134-35 0 0-86 35-163 35C93 11 43-50 43-149c0-107 59-144 167-152l124-10c6-55-12-90-62-90-74 0-193 9-193 9l-4-97s129-22 203-22c110 0 170 46 170 169zM334-222c-71 8-176-12-176 70 0 42 18 65 51 65 53 0 125-20 125-20v-115" id="aX"/><path fill="#3d4752" d="M13-499h113l103 388h26l103-388h113L285 213H172L227 0h-84" id="aY"/><path fill="#3d4752" d="M187-472c-1-4 100-41 139-38 51 3 87 16 112 42 44-17 115-43 174-43 136 0 174 75 174 250V0H672v-216c0-135-2-188-82-188-49 0-108 24-109 25 12 97 5 265 7 379H374v-257c0-106-10-147-82-147-44 0-104 23-104 23V0H74v-499h113v27" id="aZ"/><path fill="#3d4752" d="M267-93c79 0 184-9 184-9l2 89S339 11 250 11C99 11 40-68 40-244c0-182 78-267 217-267 142 0 213 73 213 228l-8 82H155c1 73 31 108 112 108zM155-290h202c0-87-29-119-100-119s-102 36-102 119" id="ba"/><path fill="#3d4752" d="M188 0H74v-499h114v25s79-37 134-37c139 0 174 82 174 250V0H382v-260c0-95-12-144-82-144-44 0-112 23-112 23V0" id="bb"/><g id="w"><use transform="matrix(0.017777777777777778,0,0,0.017777777777777778,0,0)" xlink:href="#aW"/><use transform="matrix(0.017777777777777778,0,0,0.017777777777777778,10.613333333333333,0)" xlink:href="#aX"/><use transform="matrix(0.017777777777777778,0,0,0.017777777777777778,19.964444444444446,0)" xlink:href="#aY"/><use transform="matrix(0.017777777777777778,0,0,0.017777777777777778,28.568888888888893,0)" xlink:href="#aZ"/><use transform="matrix(0.017777777777777778,0,0,0.017777777777777778,43.733333333333334,0)" xlink:href="#ba"/><use transform="matrix(0.017777777777777778,0,0,0.017777777777777778,52.74666666666667,0)" xlink:href="#bb"/><use transform="matrix(0.017777777777777778,0,0,0.017777777777777778,62.75555555555557,0)" xlink:href="#aR"/></g><path fill="#3d4752" d="M74 214v-713h114v27s68-39 125-39c130 0 192 69 192 256C505-4 384 31 188 2v212H74zm218-620c-44 0-104 26-104 26v281c4 1 52 7 85 7 90 0 116-44 116-163 0-113-37-151-97-151" id="bc"/><path fill="#3d4752" d="M74 0v-499h114v53s66-49 151-65v122c-90 18-151 52-151 52V0H74" id="bd"/><path fill="#3d4752" d="M475-700V0H360v-24s-71 35-130 35C97 11 40-64 40-253c0-179 66-258 208-258 39 0 107 12 112 13v-202h115zM248-95c49 0 112-22 112-22v-281c-5 0-62-9-104-9-69 0-100 45-100 155 0 121 31 157 92 157" id="be"/><path fill="#3d4752" d="M250-511c54 0 152 19 152 19l-4 99s-79-9-117-9c-102 0-125 38-125 146 0 120 21 159 126 159 38 0 117-9 117-9l3 99S300 11 247 11C95 11 40-66 40-256c0-179 61-255 210-255" id="bf"/><g id="x"><use transform="matrix(0.017777777777777778,0,0,0.017777777777777778,0,0)" xlink:href="#bc"/><use transform="matrix(0.017777777777777778,0,0,0.017777777777777778,9.688888888888888,0)" xlink:href="#bd"/><use transform="matrix(0.017777777777777778,0,0,0.017777777777777778,16.07111111111111,0)" xlink:href="#aP"/><use transform="matrix(0.017777777777777778,0,0,0.017777777777777778,25.475555555555555,0)" xlink:href="#be"/><use transform="matrix(0.017777777777777778,0,0,0.017777777777777778,35.217777777777776,0)" xlink:href="#aQ"/><use transform="matrix(0.017777777777777778,0,0,0.017777777777777778,45.17333333333333,0)" xlink:href="#bf"/><use transform="matrix(0.017777777777777778,0,0,0.017777777777777778,52.92444444444445,0)" xlink:href="#aR"/><use transform="matrix(0.017777777777777778,0,0,0.017777777777777778,59.21777777777778,0)" xlink:href="#aV"/></g><path fill="#3d4752" d="M480 0v-295H194V0H77v-692h117v284h286v-284h118V0H480" id="bg"/><path fill="#3d4752" d="M73 0v-706h114V0H73" id="bh"/><g id="y"><use transform="matrix(0.017777777777777778,0,0,0.017777777777777778,0,0)" xlink:href="#bg"/><use transform="matrix(0.017777777777777778,0,0,0.017777777777777778,11.982222222222223,0)" xlink:href="#ba"/><use transform="matrix(0.017777777777777778,0,0,0.017777777777777778,20.995555555555555,0)" xlink:href="#bh"/><use transform="matrix(0.017777777777777778,0,0,0.017777777777777778,25.6,0)" xlink:href="#bc"/></g><g id="z"><use transform="matrix(0.02666666666666667,0,0,0.02666666666666667,0,0)" xlink:href="#aM"/><use transform="matrix(0.02666666666666667,0,0,0.02666666666666667,18.26666666666667,0)" xlink:href="#ae"/><use transform="matrix(0.02666666666666667,0,0,0.02666666666666667,31.78666666666667,0)" xlink:href="#ap"/><use transform="matrix(0.02666666666666667,0,0,0.02666666666666667,45.70666666666667,0)" xlink:href="#an"/><use transform="matrix(0.02666666666666667,0,0,0.02666666666666667,60.18666666666667,0)" xlink:href="#ae"/><use transform="matrix(0.02666666666666667,0,0,0.02666666666666667,73.70666666666666,0)" xlink:href="#av"/></g><g id="A"><use transform="matrix(0.017777777777777778,0,0,0.017777777777777778,0,0)" xlink:href="#aS"/><use transform="matrix(0.017777777777777778,0,0,0.017777777777777778,9.12,0)" xlink:href="#ao"/><use transform="matrix(0.017777777777777778,0,0,0.017777777777777778,18.506666666666668,0)" xlink:href="#av"/><use transform="matrix(0.017777777777777778,0,0,0.017777777777777778,24.83555555555556,0)" xlink:href="#ae"/><use transform="matrix(0.017777777777777778,0,0,0.017777777777777778,33.848888888888894,0)" xlink:href="#al"/></g><g id="B"><use transform="matrix(0.017777777777777778,0,0,0.017777777777777778,0,0)" xlink:href="#ab"/><use transform="matrix(0.017777777777777778,0,0,0.017777777777777778,4.195555555555556,0)" xlink:href="#ag"/><use transform="matrix(0.017777777777777778,0,0,0.017777777777777778,13.831111111111111,0)" xlink:href="#aK"/><use transform="matrix(0.017777777777777778,0,0,0.017777777777777778,22.524444444444445,0)" xlink:href="#aI"/><use transform="matrix(0.017777777777777778,0,0,0.017777777777777778,32.46222222222222,0)" xlink:href="#al"/></g><g id="C"><use transform="matrix(0.017777777777777778,0,0,0.017777777777777778,0,0)" xlink:href="#an"/><use transform="matrix(0.017777777777777778,0,0,0.017777777777777778,9.653333333333334,0)" xlink:href="#ao"/><use transform="matrix(0.017777777777777778,0,0,0.017777777777777778,19.04,0)" xlink:href="#ad"/><use transform="matrix(0.017777777777777778,0,0,0.017777777777777778,23.342222222222222,0)" xlink:href="#ao"/><use transform="matrix(0.017777777777777778,0,0,0.017777777777777778,32.72888888888889,0)" xlink:href="#av"/></g><g id="D"><use transform="matrix(0.017777777777777778,0,0,0.017777777777777778,0,0)" xlink:href="#aK"/><use transform="matrix(0.017777777777777778,0,0,0.017777777777777778,8.693333333333333,0)" xlink:href="#ab"/><use transform="matrix(0.017777777777777778,0,0,0.017777777777777778,12.88888888888889,0)" xlink:href="#ac"/></g><path fill="#3d4752" d="M26 123l46-230h81L98 123H26" id="bi"/><g id="E"><use transform="matrix(0.017777777777777778,0,0,0.017777777777777778,0,0)" xlink:href="#ap"/><use transform="matrix(0.017777777777777778,0,0,0.017777777777777778,9.28,0)" xlink:href="#al"/><use transform="matrix(0.017777777777777778,0,0,0.017777777777777778,24.64,0)" xlink:href="#ae"/><use transform="matrix(0.017777777777777778,0,0,0.017777777777777778,33.653333333333336,0)" xlink:href="#ac"/><use transform="matrix(0.017777777777777778,0,0,0.017777777777777778,40.10666666666667,0)" xlink:href="#bi"/></g><g id="F"><use transform="matrix(0.017777777777777778,0,0,0.017777777777777778,0,0)" xlink:href="#ar"/><use transform="matrix(0.017777777777777778,0,0,0.017777777777777778,7.768888888888889,0)" xlink:href="#ao"/><use transform="matrix(0.017777777777777778,0,0,0.017777777777777778,17.155555555555555,0)" xlink:href="#aq"/><use transform="matrix(0.017777777777777778,0,0,0.017777777777777778,27.25333333333333,0)" xlink:href="#aK"/><use transform="matrix(0.017777777777777778,0,0,0.017777777777777778,35.946666666666665,0)" xlink:href="#ae"/><use transform="matrix(0.017777777777777778,0,0,0.017777777777777778,44.96,0)" xlink:href="#ar"/><use transform="matrix(0.017777777777777778,0,0,0.017777777777777778,52.72888888888889,0)" xlink:href="#ac"/><use transform="matrix(0.017777777777777778,0,0,0.017777777777777778,59.18222222222222,0)" xlink:href="#ae"/><use transform="matrix(0.017777777777777778,0,0,0.017777777777777778,68.19555555555556,0)" xlink:href="#ac"/><use transform="matrix(0.017777777777777778,0,0,0.017777777777777778,74.64888888888889,0)" xlink:href="#aI"/><use transform="matrix(0.017777777777777778,0,0,0.017777777777777778,84.58666666666667,0)" xlink:href="#av"/></g><g id="G"><use transform="matrix(0.017777777777777778,0,0,0.017777777777777778,0,0)" xlink:href="#ap"/><use transform="matrix(0.017777777777777778,0,0,0.017777777777777778,9.28,0)" xlink:href="#an"/><use transform="matrix(0.017777777777777778,0,0,0.017777777777777778,18.933333333333334,0)" xlink:href="#ab"/><use transform="matrix(0.017777777777777778,0,0,0.017777777777777778,23.128888888888888,0)" xlink:href="#ag"/><use transform="matrix(0.017777777777777778,0,0,0.017777777777777778,32.76444444444444,0)" xlink:href="#ab"/><use transform="matrix(0.017777777777777778,0,0,0.017777777777777778,36.96,0)" xlink:href="#aK"/><use transform="matrix(0.017777777777777778,0,0,0.017777777777777778,45.653333333333336,0)" xlink:href="#ar"/><use transform="matrix(0.017777777777777778,0,0,0.017777777777777778,53.422222222222224,0)" xlink:href="#ab"/><use transform="matrix(0.017777777777777778,0,0,0.017777777777777778,57.61777777777779,0)" xlink:href="#aq"/><use transform="matrix(0.017777777777777778,0,0,0.017777777777777778,67.71555555555555,0)" xlink:href="#at"/></g><g id="H"><use transform="matrix(0.017777777777777778,0,0,0.017777777777777778,0,0)" xlink:href="#ae"/><use transform="matrix(0.017777777777777778,0,0,0.017777777777777778,9.013333333333334,0)" xlink:href="#ad"/><use transform="matrix(0.017777777777777778,0,0,0.017777777777777778,13.315555555555555,0)" xlink:href="#ab"/><use transform="matrix(0.017777777777777778,0,0,0.017777777777777778,17.511111111111113,0)" xlink:href="#ac"/><use transform="matrix(0.017777777777777778,0,0,0.017777777777777778,23.964444444444446,0)" xlink:href="#ak"/></g><path fill="#3d4752" d="M90 0v-696h420v73H166v235h284v72H166v243h344V0H90" id="bj"/><g id="I"><use transform="matrix(0.017777777777777778,0,0,0.017777777777777778,0,0)" xlink:href="#bj"/><use transform="matrix(0.017777777777777778,0,0,0.017777777777777778,10.026666666666667,0)" xlink:href="#ac"/><use transform="matrix(0.017777777777777778,0,0,0.017777777777777778,16.48,0)" xlink:href="#ab"/><use transform="matrix(0.017777777777777778,0,0,0.017777777777777778,20.675555555555555,0)" xlink:href="#ap"/><use transform="matrix(0.017777777777777778,0,0,0.017777777777777778,29.955555555555556,0)" xlink:href="#al"/></g><path fill="#3d4752" d="M165-432V0H91v-432H28v-68h63v-45c0-144 36-182 134-182 35 0 101 7 101 7l-1 62s-56-2-85-2c-56 0-75 24-75 116v44h146v68H165" id="bk"/><g id="J"><use transform="matrix(0.017777777777777778,0,0,0.017777777777777778,0,0)" xlink:href="#ae"/><use transform="matrix(0.017777777777777778,0,0,0.017777777777777778,9.013333333333334,0)" xlink:href="#bk"/><use transform="matrix(0.017777777777777778,0,0,0.017777777777777778,14.95111111111111,0)" xlink:href="#bk"/><use transform="matrix(0.017777777777777778,0,0,0.017777777777777778,20.88888888888889,0)" xlink:href="#ab"/><use transform="matrix(0.017777777777777778,0,0,0.017777777777777778,25.084444444444443,0)" xlink:href="#ar"/><use transform="matrix(0.017777777777777778,0,0,0.017777777777777778,32.85333333333333,0)" xlink:href="#ab"/><use transform="matrix(0.017777777777777778,0,0,0.017777777777777778,37.04888888888889,0)" xlink:href="#ac"/><use transform="matrix(0.017777777777777778,0,0,0.017777777777777778,43.50222222222222,0)" xlink:href="#aI"/><use transform="matrix(0.017777777777777778,0,0,0.017777777777777778,53.44,0)" xlink:href="#av"/></g><g id="K"><use transform="matrix(0.017777777777777778,0,0,0.017777777777777778,0,0)" xlink:href="#aK"/><use transform="matrix(0.017777777777777778,0,0,0.017777777777777778,8.693333333333333,0)" xlink:href="#ap"/><use transform="matrix(0.017777777777777778,0,0,0.017777777777777778,17.973333333333333,0)" xlink:href="#ag"/><use transform="matrix(0.017777777777777778,0,0,0.017777777777777778,27.608888888888888,0)" xlink:href="#ab"/><use transform="matrix(0.017777777777777778,0,0,0.017777777777777778,31.80444444444444,0)" xlink:href="#ae"/><use transform="matrix(0.017777777777777778,0,0,0.017777777777777778,40.81777777777778,0)" xlink:href="#aq"/></g><g id="L"><use transform="matrix(0.017777777777777778,0,0,0.017777777777777778,0,0)" xlink:href="#ao"/><use transform="matrix(0.017777777777777778,0,0,0.017777777777777778,9.386666666666667,0)" xlink:href="#av"/><use transform="matrix(0.017777777777777778,0,0,0.017777777777777778,15.715555555555556,0)" xlink:href="#aq"/><use transform="matrix(0.017777777777777778,0,0,0.017777777777777778,25.813333333333333,0)" xlink:href="#ap"/><use transform="matrix(0.017777777777777778,0,0,0.017777777777777778,35.093333333333334,0)" xlink:href="#av"/><use transform="matrix(0.017777777777777778,0,0,0.017777777777777778,41.422222222222224,0)" xlink:href="#ae"/></g><g id="M"><use transform="matrix(0.017777777777777778,0,0,0.017777777777777778,0,0)" xlink:href="#ad"/><use transform="matrix(0.017777777777777778,0,0,0.017777777777777778,4.302222222222222,0)" xlink:href="#ae"/><use transform="matrix(0.017777777777777778,0,0,0.017777777777777778,13.315555555555555,0)" xlink:href="#ar"/><use transform="matrix(0.017777777777777778,0,0,0.017777777777777778,21.084444444444443,0)" xlink:href="#ac"/><use transform="matrix(0.017777777777777778,0,0,0.017777777777777778,27.537777777777777,0)" xlink:href="#aI"/><use transform="matrix(0.017777777777777778,0,0,0.017777777777777778,37.47555555555556,0)" xlink:href="#aK"/></g><path fill="#3d4752" d="M24-500h78L222-64h37l122-436h76L315 0H165" id="bl"/><g id="N"><use transform="matrix(0.017777777777777778,0,0,0.017777777777777778,0,0)" xlink:href="#bl"/><use transform="matrix(0.017777777777777778,0,0,0.017777777777777778,8.568888888888889,0)" xlink:href="#ae"/><use transform="matrix(0.017777777777777778,0,0,0.017777777777777778,17.58222222222222,0)" xlink:href="#af"/><use transform="matrix(0.017777777777777778,0,0,0.017777777777777778,27.626666666666665,0)" xlink:href="#ab"/><use transform="matrix(0.017777777777777778,0,0,0.017777777777777778,31.822222222222223,0)" xlink:href="#ar"/><use transform="matrix(0.017777777777777778,0,0,0.017777777777777778,39.59111111111111,0)" xlink:href="#aI"/><use transform="matrix(0.017777777777777778,0,0,0.017777777777777778,49.528888888888886,0)" xlink:href="#ad"/><use transform="matrix(0.017777777777777778,0,0,0.017777777777777778,53.831111111111106,0)" xlink:href="#ap"/></g><path fill="#3d4752" d="M308-510c136 0 183 72 183 251 0 198-54 269-236 269C195 10 87-1 87-1v-717h75v241s75-33 146-33zM254-57c137 0 161-62 161-200 0-130-26-184-114-184-66 0-139 27-139 27v351s65 6 92 6" id="bm"/><g id="O"><use transform="matrix(0.017777777777777778,0,0,0.017777777777777778,0,0)" xlink:href="#an"/><use transform="matrix(0.017777777777777778,0,0,0.017777777777777778,9.653333333333334,0)" xlink:href="#ap"/><use transform="matrix(0.017777777777777778,0,0,0.017777777777777778,18.933333333333334,0)" xlink:href="#ag"/><use transform="matrix(0.017777777777777778,0,0,0.017777777777777778,28.56888888888889,0)" xlink:href="#ab"/><use transform="matrix(0.017777777777777778,0,0,0.017777777777777778,32.76444444444444,0)" xlink:href="#bm"/><use transform="matrix(0.017777777777777778,0,0,0.017777777777777778,42.382222222222225,0)" xlink:href="#aI"/><use transform="matrix(0.017777777777777778,0,0,0.017777777777777778,52.32,0)" xlink:href="#aK"/><use transform="matrix(0.017777777777777778,0,0,0.017777777777777778,61.013333333333335,0)" xlink:href="#ak"/></g><g id="P"><use transform="matrix(0.017777777777777778,0,0,0.017777777777777778,0,0)" xlink:href="#aW"/><use transform="matrix(0.017777777777777778,0,0,0.017777777777777778,10.613333333333333,0)" xlink:href="#aP"/><use transform="matrix(0.017777777777777778,0,0,0.017777777777777778,20.017777777777777,0)" xlink:href="#bc"/><use transform="matrix(0.017777777777777778,0,0,0.017777777777777778,29.706666666666663,0)" xlink:href="#aQ"/><use transform="matrix(0.017777777777777778,0,0,0.017777777777777778,39.66222222222222,0)" xlink:href="#bh"/><use transform="matrix(0.017777777777777778,0,0,0.017777777777777778,44.266666666666666,0)" xlink:href="#aX"/><use transform="matrix(0.017777777777777778,0,0,0.017777777777777778,53.617777777777775,0)" xlink:href="#bd"/></g><path fill="#3d4752" d="M310 0H77v-692h233c225 0 278 116 278 334C588-136 541 0 310 0zm157-358c0-142-20-222-157-222H193v468h117c137 0 157-103 157-246" id="bn"/><g id="Q"><use transform="matrix(0.017777777777777778,0,0,0.017777777777777778,0,0)" xlink:href="#bn"/><use transform="matrix(0.017777777777777778,0,0,0.017777777777777778,11.217777777777778,0)" xlink:href="#ba"/><use transform="matrix(0.017777777777777778,0,0,0.017777777777777778,20.23111111111111,0)" xlink:href="#bc"/><use transform="matrix(0.017777777777777778,0,0,0.017777777777777778,29.92,0)" xlink:href="#aX"/><use transform="matrix(0.017777777777777778,0,0,0.017777777777777778,39.27111111111111,0)" xlink:href="#bd"/><use transform="matrix(0.017777777777777778,0,0,0.017777777777777778,45.653333333333336,0)" xlink:href="#aR"/><use transform="matrix(0.017777777777777778,0,0,0.017777777777777778,51.94666666666667,0)" xlink:href="#aZ"/><use transform="matrix(0.017777777777777778,0,0,0.017777777777777778,67.11111111111111,0)" xlink:href="#ba"/><use transform="matrix(0.017777777777777778,0,0,0.017777777777777778,76.12444444444445,0)" xlink:href="#bb"/><use transform="matrix(0.017777777777777778,0,0,0.017777777777777778,86.13333333333334,0)" xlink:href="#aR"/><use transform="matrix(0.017777777777777778,0,0,0.017777777777777778,92.42666666666668,0)" xlink:href="#aV"/></g><g id="R"><use transform="matrix(0.017777777777777778,0,0,0.017777777777777778,0,0)" xlink:href="#au"/><use transform="matrix(0.017777777777777778,0,0,0.017777777777777778,9.528888888888888,0)" xlink:href="#av"/><use transform="matrix(0.017777777777777778,0,0,0.017777777777777778,15.857777777777779,0)" xlink:href="#ae"/><use transform="matrix(0.017777777777777778,0,0,0.017777777777777778,24.871111111111112,0)" xlink:href="#ap"/><use transform="matrix(0.017777777777777778,0,0,0.017777777777777778,34.15111111111111,0)" xlink:href="#ac"/><use transform="matrix(0.017777777777777778,0,0,0.017777777777777778,40.60444444444445,0)" xlink:href="#ae"/></g><g id="S"><use transform="matrix(0.017777777777777778,0,0,0.017777777777777778,0,0)" xlink:href="#ap"/><use transform="matrix(0.017777777777777778,0,0,0.017777777777777778,9.28,0)" xlink:href="#ar"/><use transform="matrix(0.017777777777777778,0,0,0.017777777777777778,17.04888888888889,0)" xlink:href="#ar"/><use transform="matrix(0.017777777777777778,0,0,0.017777777777777778,24.817777777777778,0)" xlink:href="#ao"/><use transform="matrix(0.017777777777777778,0,0,0.017777777777777778,34.20444444444445,0)" xlink:href="#aI"/><use transform="matrix(0.017777777777777778,0,0,0.017777777777777778,44.14222222222222,0)" xlink:href="#aq"/><use transform="matrix(0.017777777777777778,0,0,0.017777777777777778,54.24,0)" xlink:href="#ac"/></g><path fill="#3d4752" d="M28-692h123l112 572h20l114-570h133l116 570h19l111-572h123L747 0H564L463-518 364 0H181" id="bo"/><g id="T"><use transform="matrix(0.017777777777777778,0,0,0.017777777777777778,0,0)" xlink:href="#bo"/><use transform="matrix(0.017777777777777778,0,0,0.017777777777777778,16.48,0)" xlink:href="#ba"/><use transform="matrix(0.017777777777777778,0,0,0.017777777777777778,25.493333333333332,0)" xlink:href="#bh"/><use transform="matrix(0.017777777777777778,0,0,0.017777777777777778,30.09777777777778,0)" xlink:href="#bf"/><use transform="matrix(0.017777777777777778,0,0,0.017777777777777778,37.848888888888894,0)" xlink:href="#aP"/><use transform="matrix(0.017777777777777778,0,0,0.017777777777777778,47.253333333333345,0)" xlink:href="#aZ"/><use transform="matrix(0.017777777777777778,0,0,0.017777777777777778,62.417777777777786,0)" xlink:href="#ba"/></g><g id="U"><use transform="matrix(0.017777777777777778,0,0,0.017777777777777778,0,0)" xlink:href="#as"/><use transform="matrix(0.017777777777777778,0,0,0.017777777777777778,9.493333333333334,0)" xlink:href="#af"/><use transform="matrix(0.017777777777777778,0,0,0.017777777777777778,19.537777777777777,0)" xlink:href="#ao"/><use transform="matrix(0.017777777777777778,0,0,0.017777777777777778,28.924444444444443,0)" xlink:href="#ag"/></g><g id="V"><use transform="matrix(0.017777777777777778,0,0,0.017777777777777778,0,0)" xlink:href="#au"/><use transform="matrix(0.017777777777777778,0,0,0.017777777777777778,9.528888888888888,0)" xlink:href="#ad"/><use transform="matrix(0.017777777777777778,0,0,0.017777777777777778,13.83111111111111,0)" xlink:href="#ao"/><use transform="matrix(0.017777777777777778,0,0,0.017777777777777778,23.217777777777776,0)" xlink:href="#ac"/><use transform="matrix(0.017777777777777778,0,0,0.017777777777777778,29.67111111111111,0)" xlink:href="#af"/><use transform="matrix(0.017777777777777778,0,0,0.017777777777777778,39.715555555555554,0)" xlink:href="#ab"/><use transform="matrix(0.017777777777777778,0,0,0.017777777777777778,43.91111111111111,0)" xlink:href="#aq"/><use transform="matrix(0.017777777777777778,0,0,0.017777777777777778,54.00888888888889,0)" xlink:href="#at"/></g><path fill="#3d4752" d="M494-120l3 106S380 11 301 11C92 11 44-109 44-345c0-252 61-358 257-358 87 0 197 27 197 27l-4 103s-117-15-177-15c-121 0-152 58-152 243 0 176 24 241 156 241 54 0 173-16 173-16" id="bp"/><path fill="#3d4752" d="M188 0H74v-710h114v228s79-29 134-29c139 0 174 82 174 249V0H381v-261c0-94-11-143-81-143-45 0-112 17-112 17V0" id="bq"/><path fill="#3d4752" d="M72 0v-499h114V0H72zm0-580v-121h114v121H72" id="br"/><path fill="#3d4752" d="M271 240C121 240 39 210 39 89c0-50 23-83 74-122-21-14-33-42-33-73 0-23 37-79 37-79-37-23-72-61-72-150 0-127 87-175 202-175 46 0 102 13 102 13l152-3v93h-72c11 15 21 35 21 72 0 153-101 184-249 170-15 56-36 82 93 82 161 0 210 35 210 150 0 124-100 173-233 173zm14-224c-31 0-97-6-97-6-25 22-36 38-36 67 0 43 33 60 120 60 77 0 116-18 116-64 0-51-24-56-103-57zm-40-273c64 0 92-20 92-78 0-59-26-77-91-77-60 0-86 21-86 77 0 53 21 78 85 78" id="bs"/><g id="W"><use transform="matrix(0.017777777777777778,0,0,0.017777777777777778,0,0)" xlink:href="#bp"/><use transform="matrix(0.017777777777777778,0,0,0.017777777777777778,9.511111111111111,0)" xlink:href="#bh"/><use transform="matrix(0.017777777777777778,0,0,0.017777777777777778,14.115555555555556,0)" xlink:href="#aP"/><use transform="matrix(0.017777777777777778,0,0,0.017777777777777778,23.52,0)" xlink:href="#aR"/><use transform="matrix(0.017777777777777778,0,0,0.017777777777777778,29.813333333333333,0)" xlink:href="#bq"/><use transform="matrix(0.017777777777777778,0,0,0.017777777777777778,39.80444444444444,0)" xlink:href="#br"/><use transform="matrix(0.017777777777777778,0,0,0.017777777777777778,44.373333333333335,0)" xlink:href="#bb"/><use transform="matrix(0.017777777777777778,0,0,0.017777777777777778,54.382222222222225,0)" xlink:href="#bs"/></g><path fill="#3d4752" d="M343-233H167V0H90v-696h253c151 0 221 72 221 223s-70 240-221 240zm-176-74h175c101 0 143-63 143-166 0-102-42-149-143-149H167v315" id="bt"/><g id="X"><use transform="matrix(0.017777777777777778,0,0,0.017777777777777778,0,0)" xlink:href="#bt"/><use transform="matrix(0.017777777777777778,0,0,0.017777777777777778,10.773333333333333,0)" xlink:href="#av"/><use transform="matrix(0.017777777777777778,0,0,0.017777777777777778,17.102222222222224,0)" xlink:href="#ab"/><use transform="matrix(0.017777777777777778,0,0,0.017777777777777778,21.29777777777778,0)" xlink:href="#ar"/><use transform="matrix(0.017777777777777778,0,0,0.017777777777777778,29.06666666666667,0)" xlink:href="#ae"/></g><g id="Y"><use transform="matrix(0.017777777777777778,0,0,0.017777777777777778,0,0)" xlink:href="#aJ"/><use transform="matrix(0.017777777777777778,0,0,0.017777777777777778,11.413333333333334,0)" xlink:href="#ae"/><use transform="matrix(0.017777777777777778,0,0,0.017777777777777778,20.42666666666667,0)" xlink:href="#ap"/><use transform="matrix(0.017777777777777778,0,0,0.017777777777777778,29.70666666666667,0)" xlink:href="#ad"/><use transform="matrix(0.017777777777777778,0,0,0.017777777777777778,34.00888888888889,0)" xlink:href="#aK"/></g><g id="Z"><use transform="matrix(0.017777777777777778,0,0,0.017777777777777778,0,0)" xlink:href="#bn"/><use transform="matrix(0.017777777777777778,0,0,0.017777777777777778,11.217777777777778,0)" xlink:href="#ba"/><use transform="matrix(0.017777777777777778,0,0,0.017777777777777778,20.23111111111111,0)" xlink:href="#aX"/><use transform="matrix(0.017777777777777778,0,0,0.017777777777777778,29.58222222222222,0)" xlink:href="#bh"/><use transform="matrix(0.017777777777777778,0,0,0.017777777777777778,34.18666666666667,0)" xlink:href="#aV"/></g></defs></g></svg>